<svg xmlns="http://www.w3.org/2000/svg" width="19.313" height="19.313" viewBox="0 0 19.313 19.313">
  <path id="icon-zoom" d="M-3.047-16.547a7.222,7.222,0,0,1,5.3-2.2,7.222,7.222,0,0,1,5.3,2.2,7.222,7.222,0,0,1,2.2,5.3,7.222,7.222,0,0,1-2.2,5.3,7.222,7.222,0,0,1-5.3,2.2A7.264,7.264,0,0,1-2.484-5.437l-5.953,6L-9.562-.562l6-5.953A7.264,7.264,0,0,1-5.25-11.25,7.222,7.222,0,0,1-3.047-16.547Zm9.539,1.055A5.781,5.781,0,0,0,2.25-17.25a5.781,5.781,0,0,0-4.242,1.758A5.781,5.781,0,0,0-3.75-11.25,5.781,5.781,0,0,0-1.992-7.008,5.781,5.781,0,0,0,2.25-5.25,5.781,5.781,0,0,0,6.492-7.008,5.781,5.781,0,0,0,8.25-11.25,5.781,5.781,0,0,0,6.492-15.492ZM1.5-14.25H3V-12H5.25v1.5H3v2.25H1.5V-10.5H-.75V-12H1.5Z" transform="translate(9.563 18.75)" fill="#ffffff"/>
</svg>
