<svg xmlns="http://www.w3.org/2000/svg" width="18" height="18.75" viewBox="0 0 18 18.75">
  <path id="icon-fax" d="M9-17.25h9v3.75h3v12H9v.75A2.17,2.17,0,0,1,8.344.844,2.17,2.17,0,0,1,6.75,1.5,2.17,2.17,0,0,1,5.156.844,2.17,2.17,0,0,1,4.5-.75V-1.5H3V-15H7.5v1.5H9v-3.75Zm1.5,1.5V-12h6v-3.75Zm-6,2.25V-3H6V-13.5Zm3,1.5v9h12v-9H18v1.5H9V-12ZM9.75-9h1.5v1.5H9.75Zm3,0h1.5v1.5h-1.5Zm3,0h1.5v1.5h-1.5Zm-6,3h1.5v1.5H9.75Zm3,0h1.5v1.5h-1.5Zm3,0h1.5v1.5h-1.5ZM6-1.5v.75a.73.73,0,0,0,.211.539A.73.73,0,0,0,6.75,0a.73.73,0,0,0,.539-.211A.73.73,0,0,0,7.5-.75V-1.5H6Z" transform="translate(-3 17.25)" fill="#5d5d62"/>
</svg>
