<svg xmlns="http://www.w3.org/2000/svg" width="19.564" height="19.553" viewBox="0 0 19.564 19.553">
  <path id="icon-phone" d="M5.391-18.375a1.839,1.839,0,0,1,1.1-.375,1.839,1.839,0,0,1,1.1.375l.047.047.047.047,3,3.094.047.047-.047.047a1.355,1.355,0,0,1,.516,1.1,1.562,1.562,0,0,1-.469,1.148l-1.5,1.5A9.524,9.524,0,0,0,11.344-8.25a10.912,10.912,0,0,0,3.047,2.063l1.453-1.453.047-.047a1.686,1.686,0,0,1,1.172-.422,1.686,1.686,0,0,1,1.172.422l.047.094,3,3a1.59,1.59,0,0,1,.469,1.172,1.59,1.59,0,0,1-.469,1.172L18.984.094h-.047a2.553,2.553,0,0,1-2.625.563A25.29,25.29,0,0,1,7.781-4.781a23.089,23.089,0,0,1-5.437-8.531A2.171,2.171,0,0,1,3-15.844v-.047l2.344-2.391v-.047Zm1.266,1.219a.257.257,0,0,0-.164-.094.257.257,0,0,0-.164.094l-2.3,2.3v.047a.84.84,0,0,0-.281.984A21.078,21.078,0,0,0,8.859-5.859,23.012,23.012,0,0,0,16.781-.8a1.086,1.086,0,0,0,1.172-.234l2.3-2.25q.094-.141,0-.234L17.156-6.562q-.094-.141-.187,0L15.094-4.687l-.375.328-.469-.234a12.69,12.69,0,0,1-3.8-2.437l-.141-.141a8.65,8.65,0,0,1-1.5-1.758,11.657,11.657,0,0,1-.937-1.664L7.594-11.2l-.141-.469L7.781-12l1.875-1.875q.141-.094.094-.187H9.7l-.047-.047Z" transform="translate(-2.186 18.75)" fill="#5d5d62"/>
</svg>
