<svg xmlns="http://www.w3.org/2000/svg" width="16.513" height="17.25" viewBox="0 0 16.513 17.25">
  <path id="icon-like" d="M.516-18.75H.844a2.163,2.163,0,0,1,1.523.586A1.826,1.826,0,0,1,3-16.781a3.643,3.643,0,0,1-.7,2.25,3.315,3.315,0,0,1-.469.469l-.141.563H6a2.154,2.154,0,0,1,1.758.844A2.108,2.108,0,0,1,8.2-10.781l-1.641,7.5a2.025,2.025,0,0,1-.773,1.289A2.2,2.2,0,0,1,4.406-1.5H-8.25v-12h3.469L.281-18.562Zm.516,1.594L-3.75-12.469V-3H4.406a.692.692,0,0,0,.75-.562l1.594-7.5a.872.872,0,0,0-.164-.656A.691.691,0,0,0,6-12H-.281L0-12.937l.422-1.687.094-.281.234-.187a1.138,1.138,0,0,0,.375-.281A2.482,2.482,0,0,0,1.5-16.781Q1.5-17.109,1.031-17.156ZM-6.75-12v9h1.5v-9Z" transform="translate(8.25 18.75)" fill="#ffffff"/>
</svg>
