<svg xmlns="http://www.w3.org/2000/svg" width="16.513" height="17.25" viewBox="0 0 16.513 17.25">
  <path id="icon-dislike" d="M-4.406-16.5H8.25v12H4.781L-.281.563-.516.75H-.844A2.163,2.163,0,0,1-2.367.164,1.826,1.826,0,0,1-3-1.219a3.643,3.643,0,0,1,.7-2.25,3.315,3.315,0,0,1,.469-.469l.141-.562H-6a2.154,2.154,0,0,1-1.758-.844A2.108,2.108,0,0,1-8.2-7.219l1.641-7.5a2.025,2.025,0,0,1,.773-1.289A2.2,2.2,0,0,1-4.406-16.5Zm0,1.5a.692.692,0,0,0-.75.563l-1.594,7.5a.872.872,0,0,0,.164.656A.691.691,0,0,0-6-6H.281L0-5.062-.422-3.375l-.094.281-.234.188a1.138,1.138,0,0,0-.375.281A2.482,2.482,0,0,0-1.5-1.219q0,.328.469.375L3.75-5.531V-15ZM5.25-15v9h1.5v-9Z" transform="translate(8.263 16.5)" fill="#ffffff"/>
</svg>
