<svg xmlns="http://www.w3.org/2000/svg" width="13.5" height="20.063" viewBox="0 0 13.5 20.063">
  <path id="icon-location" d="M7.219-16.781A6.509,6.509,0,0,1,12-18.75a6.509,6.509,0,0,1,4.781,1.969A6.509,6.509,0,0,1,18.75-12a9.277,9.277,0,0,1-1.031,3.563,30.982,30.982,0,0,1-2.062,4.031Q15-3.234,14.227-2.016t-1.2,1.828l-.422.609L12,1.313,11.391.422q-1.547-2.2-3.047-4.828A30.981,30.981,0,0,1,6.281-8.437,9.277,9.277,0,0,1,5.25-12,6.509,6.509,0,0,1,7.219-16.781Zm8.508,1.055A5.069,5.069,0,0,0,12-17.25a5.069,5.069,0,0,0-3.727,1.523A5.069,5.069,0,0,0,6.75-12a8.832,8.832,0,0,0,.844,3A42.042,42.042,0,0,0,9.656-5.156Q10.828-3.141,12-1.406q1.172-1.734,2.344-3.75A42.043,42.043,0,0,0,16.406-9a8.832,8.832,0,0,0,.844-3A5.069,5.069,0,0,0,15.727-15.727Zm-4.781,2.672A1.442,1.442,0,0,1,12-13.5a1.442,1.442,0,0,1,1.055.445A1.442,1.442,0,0,1,13.5-12a1.442,1.442,0,0,1-.445,1.055A1.442,1.442,0,0,1,12-10.5a1.442,1.442,0,0,1-1.055-.445A1.442,1.442,0,0,1,10.5-12,1.442,1.442,0,0,1,10.945-13.055Z" transform="translate(-5.25 18.75)" fill="#5d5d62"/>
</svg>
