<svg xmlns="http://www.w3.org/2000/svg" width="18" height="17.25" viewBox="0 0 18 17.25">
  <path id="icon-socials" d="M9.938-17.156A2.806,2.806,0,0,1,12-18a2.806,2.806,0,0,1,2.063.844A3.167,3.167,0,0,1,15-15.094a7.154,7.154,0,0,1,3.258,2.719A7.314,7.314,0,0,1,19.5-8.25v.375A2.871,2.871,0,0,1,21-5.25a2.883,2.883,0,0,1-.891,2.109A2.883,2.883,0,0,1,18-2.25a2.687,2.687,0,0,1-1.219-.281A7.21,7.21,0,0,1,12-.75,7.21,7.21,0,0,1,7.219-2.531,2.687,2.687,0,0,1,6-2.25a2.883,2.883,0,0,1-2.109-.891A2.883,2.883,0,0,1,3-5.25,2.833,2.833,0,0,1,4.5-7.828V-8.25a7.314,7.314,0,0,1,1.242-4.125A7.154,7.154,0,0,1,9-15.094,3.167,3.167,0,0,1,9.938-17.156Zm3.117,1.1A1.442,1.442,0,0,0,12-16.5a1.442,1.442,0,0,0-1.055.445A1.442,1.442,0,0,0,10.5-15a1.442,1.442,0,0,0,.445,1.055A1.442,1.442,0,0,0,12-13.5a1.442,1.442,0,0,0,1.055-.445A1.442,1.442,0,0,0,13.5-15,1.442,1.442,0,0,0,13.055-16.055Zm-3.68,2.461a5.578,5.578,0,0,0-2.461,2.156A5.869,5.869,0,0,0,6-8.25a2.883,2.883,0,0,1,2.109.891A2.883,2.883,0,0,1,9-5.25a2.86,2.86,0,0,1-.609,1.781A5.788,5.788,0,0,0,12-2.25a5.788,5.788,0,0,0,3.609-1.219A2.86,2.86,0,0,1,15-5.25a2.883,2.883,0,0,1,.891-2.109A2.883,2.883,0,0,1,18-8.25a5.869,5.869,0,0,0-.914-3.187,5.578,5.578,0,0,0-2.461-2.156A2.781,2.781,0,0,1,12-12,2.781,2.781,0,0,1,9.375-13.594ZM7.055-6.3A1.442,1.442,0,0,0,6-6.75,1.442,1.442,0,0,0,4.945-6.3,1.442,1.442,0,0,0,4.5-5.25,1.442,1.442,0,0,0,4.945-4.2,1.442,1.442,0,0,0,6-3.75,1.442,1.442,0,0,0,7.055-4.2,1.442,1.442,0,0,0,7.5-5.25,1.442,1.442,0,0,0,7.055-6.3Zm12,0A1.442,1.442,0,0,0,18-6.75a1.442,1.442,0,0,0-1.055.445A1.442,1.442,0,0,0,16.5-5.25,1.442,1.442,0,0,0,16.945-4.2,1.442,1.442,0,0,0,18-3.75,1.442,1.442,0,0,0,19.055-4.2,1.442,1.442,0,0,0,19.5-5.25,1.442,1.442,0,0,0,19.055-6.3Z" transform="translate(-3 18)" fill="#5d5d62"/>
</svg>
