<svg xmlns="http://www.w3.org/2000/svg" width="19.781" height="19.828" viewBox="0 0 19.781 19.828">
  <path id="pin" d="M3.375-19.078l.563.516,5.625,5.625.469.563-.469.563a4.152,4.152,0,0,1-3.609,1.125L3.281-7.969a5.915,5.915,0,0,1-.023,3A5.742,5.742,0,0,1,1.734-2.344l-.516.563L.656-2.344-2.484-5.484-8.719.75H-9.75V-.281l6.234-6.234L-6.75-9.75l-.562-.516.563-.516A5.546,5.546,0,0,1-1.5-12.422l3.094-3.047a5.041,5.041,0,0,1,1.219-3.047Zm.141,2.3A3.64,3.64,0,0,0,3-15.047v.281l-.187.234L-.656-11.062l-.328.281-.422-.094a4.124,4.124,0,0,0-3.609.75L1.125-3.984a4.268,4.268,0,0,0,.656-4.031l-.187-.422.375-.375,3.094-3.094.328-.328.422.141a2.813,2.813,0,0,0,1.969-.422Z" transform="translate(9.75 19.078)" fill="#5C5C60"/>
</svg>
